<svg width="1440" height="720" viewBox="0 0 1440 720" fill="none" xmlns="http://www.w3.org/2000/svg">
<path d="M0 0C0 0 28.0002 718.5 720 718.5C1412 718.5 1440 0 1440 0" stroke="#666666" stroke-opacity="0.1" stroke-width="2"/>
<path d="M0 -162C0 -162 28.0002 556.5 720 556.5C1412 556.5 1440 -162 1440 -162" stroke="#666666" stroke-opacity="0.1" stroke-width="2"/>
<path d="M137 -162C137 -162 159.672 420 720 420C1280.33 420 1303 -162 1303 -162" stroke="#666666" stroke-opacity="0.1" stroke-width="2"/>
<path d="M285 -162C285 -162 301.917 272 720 272C1138.08 272 1155 -162 1155 -162" stroke="#666666" stroke-opacity="0.1" stroke-width="2"/>
<path d="M422 -162C422 -162 433.589 135 720 135C1006.41 135 1018 -162 1018 -162" stroke="#666666" stroke-opacity="0.1" stroke-width="2"/>
</svg>
